# xmcd
#
# Track frame offsets:
#	150
#	23169
#	39862
#	53975
#	69671
#	83664
#	98919
#	115312
#	128553
#	144648
#	158535
#
# Disc length: 2230 seconds
#
# Revision: 0
# Processed by: cddbd v1.5.2PL0 Copyright (c) Steve Scherf et al.
# Submitted via: audiograbber 1.83.01
#
DISCID=8708b40b
DTITLE=Dan Seals - San Antone
DYEAR=1984
DGENRE=Country
TTITLE0=In San Antone
TTITLE1=The Loving Proof
TTITLE2=Tonight Is For The Lover In You
TTITLE3=My Baby's Got Good Timing
TTITLE4=Who's Gonna Keep Me Warm
TTITLE5=(You Bring Out) The Wild Side Of Me
TTITLE6=My Old Yellow Car
TTITLE7=She Thinks I Still Care
TTITLE8=She's Leaving
TTITLE9=Oh These Nights
TTITLE10=One Friend
EXTD=
EXTT0=
EXTT1=
EXTT2=
EXTT3=
EXTT4=
EXTT5=
EXTT6=
EXTT7=
EXTT8=
EXTT9=
EXTT10=
PLAYORDER=
